<?xml version="1.0" encoding="iso-8859-1"?>
<!-- Generator: Adobe Illustrator 19.0.0, SVG Export Plug-In . SVG Version: 6.00 Build 0)  -->
<svg version="1.1" id="Capa_1" xmlns="http://www.w3.org/2000/svg" xmlns:xlink="http://www.w3.org/1999/xlink" x="0px" y="0px"
	 viewBox="0 0 512 512" style="enable-background:new 0 0 512 512;" xml:space="preserve">
<g>
	<path style="fill:#f4f4f4;" d="M264.828,225.103h-17.655v-15.254c-0.035-15.369,6.947-29.908,18.97-39.477l12.809-10.249
		c14.186-11.37,16.472-32.088,5.102-46.274c-6.241-7.786-15.678-12.323-25.653-12.332h-4.802
		c-18.167,0.018-32.892,14.742-32.909,32.909v20.056h-17.655v-20.056c0.026-27.913,22.652-50.538,50.564-50.564h4.802
		c27.922,0,50.564,22.643,50.564,50.564c0,15.36-6.983,29.881-18.97,39.477l-12.809,10.249
		c-7.821,6.232-12.376,15.695-12.359,25.697v15.254H264.828z"/>
	<rect x="8.828" y="401.65" style="fill:#337AB5;" width="494.35" height="17.655"/>
</g>
<path style="fill:#f4f4f4;" d="M309.654,246.855l-0.177-0.3c-11.273-18.785-31.567-30.279-53.478-30.279l0,0
	c-21.91,0-42.205,11.494-53.478,30.279l-0.177,0.3c-5.341,8.898-12.818,16.322-21.751,21.601L17.346,364.924
	C6.594,371.279,0,382.835,0,395.326v32.812l256-150.069l256,150.069v-32.812c0-12.491-6.594-24.046-17.346-30.402l-163.249-96.468
	C322.472,263.177,314.995,255.753,309.654,246.855z"/>
<g>
</g>
<g>
</g>
<g>
</g>
<g>
</g>
<g>
</g>
<g>
</g>
<g>
</g>
<g>
</g>
<g>
</g>
<g>
</g>
<g>
</g>
<g>
</g>
<g>
</g>
<g>
</g>
<g>
</g>
</svg>
